PathFileType   4   (X/Y/Z)
DataRate	CameraRate	NumFrames	NumMarkers	Units	OrigDataRate	OrigDataStartFrame	OrigNumFrames
120.0	120.0	10	37	mm	120.0	42	111
Frame#	Time	midhip	hip_r	hip_l	knee_r	knee_l	ankle_r	ankle_l	midasis	asis_r	asis_l	psis_r	psis_l	epicondLat_r	epicondLat_l	epicondMed_r	epicondMed_l	malleolusLat_r	malleolusLat_l	malleolusMedv_r	malleolusMedv_l	neck	subclavicle_r	subclavicle_l	sternalnotch	xyphoidprocess	thighwand_r	thighwand_l	upperleg1_r	upperleg1_l	upperleg2_r	upperleg2_l	shankwand_r	shankwand_l	lowerleg1_r	lowerleg1_l	toe_r	toe_l
 	 	X1	Y1	Z1	X2	Y2	Z2	X3	Y3	Z3	X4	Y4	Z4	X5	Y5	Z5	X6	Y6	Z6	X7	Y7	Z7	X8	Y8	Z8	X9	Y9	Z9	X10	Y10	Z10	X11	Y11	Z11	X12	Y12	Z12	X13	Y13	Z13	X14	Y14	Z14	X15	Y15	Z15	X16	Y16	Z16	X17	Y17	Z17	X18	Y18	Z18	X19	Y19	Z19	X20	Y20	Z20	X21	Y21	Z21	X22	Y22	Z22	X23	Y23	Z23	X24	Y24	Z24	X25	Y25	Z25	X26	Y26	Z26	X27	Y27	Z27	X28	Y28	Z28	X29	Y29	Z29	X30	Y30	Z30	X31	Y31	Z31	X32	Y32	Z32	X33	Y33	Z33	X34	Y34	Z34	X35	Y35	Z35	X36	Y36	Z36	X37	Y37	Z37

	42	0.43333	1095.287	599.990	-290.123	1102.731	610.945	-236.006	1101.949	614.248	-353.402	1214.084	327.799	-219.589	993.251	338.607	-335.274	1336.224	63.198	-201.369	876.358	70.340	-331.527	1145.653	675.220	-293.231	1146.242	672.732	-204.810	1145.064	677.707	-381.652	1009.420	689.048	-245.548	1005.358	692.191	-329.441	1212.725	329.929	-173.658	989.328	337.010	-383.086	1208.110	320.854	-255.671	985.683	347.265	-297.352	1325.910	60.624	-169.601	869.113	73.055	-363.092	1346.011	74.684	-226.680	871.305	73.747	-297.943	1076.301	1012.104	-293.621	1159.185	935.118	-243.978	1165.554	938.765	-332.978	1148.256	951.011	-281.056	1180.264	812.668	-289.706	1291.727	456.286	-247.706	1078.550	392.257	-445.453	1207.697	477.717	-197.368	1095.235	448.356	-368.640	1229.939	393.345	-191.268	1056.751	371.392	-346.064	1301.499	143.968	-102.705	1003.041	139.535	-305.867	1273.225	200.462	-165.653	965.285	210.777	-331.436	1420.434	84.619	-179.844	952.343	36.479	-323.406
	43	0.44167	1105.578	598.165	-288.318	1113.175	609.305	-234.467	1112.144	612.251	-351.871	1225.037	326.792	-219.882	999.997	337.913	-334.542	1348.614	62.671	-203.154	877.699	71.946	-332.089	1156.024	673.371	-291.980	1156.801	671.152	-203.508	1155.247	675.591	-380.451	1019.554	687.590	-243.460	1015.582	690.235	-327.737	1224.382	328.905	-173.935	996.299	336.403	-382.376	1217.098	320.578	-256.841	992.276	345.950	-296.650	1338.727	60.066	-171.252	870.657	74.892	-363.680	1357.408	73.514	-228.753	872.537	75.495	-298.536	1086.484	1010.120	-291.698	1169.165	933.039	-242.303	1175.798	936.863	-331.238	1158.469	949.098	-279.304	1190.315	810.671	-288.199	1302.146	455.693	-249.204	1086.577	390.544	-444.399	1218.909	477.031	-197.453	1102.848	446.149	-366.914	1240.465	392.406	-192.242	1064.029	369.965	-344.842	1314.898	143.151	-104.263	1005.666	138.466	-305.631	1285.580	199.547	-166.992	969.325	210.496	-331.136	1433.133	83.922	-183.119	952.820	36.578	-323.649
	44	0.45000	1115.983	596.487	-286.435	1123.720	607.807	-232.844	1122.509	610.377	-350.254	1237.057	326.464	-220.306	1007.135	337.241	-333.697	1359.095	61.740	-205.011	879.256	73.767	-332.682	1166.552	671.640	-290.628	1167.465	669.701	-202.081	1165.639	673.578	-379.175	1029.783	686.312	-241.329	1026.006	688.441	-325.992	1236.723	328.378	-174.347	1003.625	335.824	-381.547	1227.108	321.273	-259.185	998.790	342.906	-296.146	1349.786	59.303	-172.923	872.403	76.971	-364.289	1367.133	71.406	-231.163	873.687	77.515	-299.041	1096.716	1008.301	-289.835	1179.141	931.205	-240.488	1186.124	935.106	-329.340	1168.796	947.356	-277.463	1200.426	808.871	-286.387	1313.213	455.691	-249.600	1094.847	388.924	-443.278	1230.233	476.819	-197.099	1109.265	443.200	-363.938	1251.198	391.608	-193.381	1071.561	368.617	-343.451	1327.920	142.368	-106.042	1008.514	137.435	-305.463	1297.876	198.469	-168.462	973.445	210.319	-330.726	1444.221	81.735	-186.564	953.392	36.717	-323.907
	45	0.45833	1126.518	594.954	-284.503	1134.353	606.479	-231.168	1133.042	608.652	-348.586	1250.048	326.819	-220.799	1014.763	336.570	-332.739	1367.786	60.535	-206.880	881.077	75.821	-333.304	1177.217	670.059	-289.206	1178.207	668.419	-200.570	1176.227	671.699	-377.842	1040.100	685.211	-239.272	1036.624	686.826	-324.271	1249.709	328.383	-174.826	1011.361	335.261	-380.600	1241.766	321.398	-260.199	1007.183	344.889	-294.284	1359.229	58.441	-174.559	874.401	79.313	-364.919	1375.354	68.247	-233.668	874.695	79.875	-299.481	1106.874	1006.586	-287.977	1189.835	929.650	-238.625	1196.548	933.619	-327.365	1179.235	945.829	-275.508	1211.448	807.418	-284.585	1324.854	456.287	-249.035	1103.333	387.443	-442.142	1242.065	476.120	-196.385	1120.223	442.562	-364.187	1264.475	391.578	-193.596	1079.695	367.260	-342.123	1340.630	141.699	-107.990	1011.624	136.438	-305.373	1309.996	197.112	-170.124	978.300	210.326	-330.457	1453.812	78.206	-190.175	954.081	36.893	-324.182
	46	0.46667	1137.237	593.579	-282.617	1145.060	605.361	-229.473	1143.737	607.098	-346.898	1263.733	327.839	-221.292	1022.990	335.867	-331.677	1374.841	59.219	-208.674	883.221	78.131	-333.957	1187.989	668.676	-287.752	1188.988	667.363	-199.029	1186.989	669.989	-376.475	1050.485	684.281	-237.401	1047.421	685.398	-322.651	1263.158	328.949	-175.309	1019.588	334.695	-379.542	1257.058	321.776	-260.830	1015.525	345.083	-292.998	1367.225	57.600	-176.092	876.714	81.939	-365.571	1382.437	64.680	-236.117	876.109	82.610	-300.002	1117.108	1004.927	-285.942	1200.941	928.436	-236.812	1207.128	932.345	-325.264	1189.777	944.563	-273.442	1223.060	806.289	-282.607	1336.935	457.508	-247.772	1112.053	386.136	-441.027	1253.540	475.720	-195.189	1130.082	441.383	-363.499	1277.660	391.568	-193.168	1087.987	365.833	-340.932	1353.006	141.211	-110.029	1015.046	135.467	-305.354	1321.733	195.919	-172.211	983.609	210.382	-330.293	1462.021	73.619	-193.927	954.912	37.100	-324.471
	47	0.47500	1148.165	592.396	-280.839	1155.825	604.504	-227.783	1154.577	605.742	-345.215	1277.816	329.469	-221.744	1031.923	335.096	-330.531	1380.446	57.943	-210.296	885.756	80.717	-334.638	1198.830	667.544	-286.304	1199.773	666.608	-197.510	1197.887	668.480	-375.098	1060.895	683.530	-235.804	1058.367	684.159	-321.213	1276.898	330.072	-175.757	1028.407	334.092	-378.392	1270.032	322.772	-261.558	1024.033	344.393	-291.916	1373.948	56.872	-177.450	879.422	84.867	-366.244	1388.388	61.753	-238.088	878.140	85.631	-300.649	1127.608	1003.594	-283.782	1211.706	927.399	-234.651	1217.766	931.367	-322.988	1200.408	943.592	-271.285	1234.185	805.349	-280.473	1349.280	459.371	-246.172	1121.074	385.023	-439.949	1264.852	475.759	-193.532	1139.550	439.835	-362.339	1289.265	391.393	-192.431	1096.573	364.408	-339.847	1364.959	140.927	-112.061	1018.842	134.519	-305.396	1333.304	195.708	-174.511	989.090	210.366	-330.019	1468.942	68.375	-197.733	955.910	37.327	-324.777
	48	0.48333	1159.122	591.505	-279.092	1166.632	603.963	-226.117	1165.537	604.613	-343.555	1291.960	331.590	-222.135	1041.656	334.221	-329.338	1384.798	56.811	-211.663	888.768	83.599	-335.339	1209.703	666.716	-284.897	1210.531	666.224	-196.055	1208.875	667.208	-373.738	1071.298	682.976	-234.556	1069.423	683.118	-320.019	1290.727	331.695	-176.151	1037.933	333.411	-377.187	1282.332	324.266	-261.497	1033.587	343.323	-290.875	1379.556	56.301	-178.579	882.612	88.110	-366.930	1392.318	59.847	-239.532	880.963	88.658	-301.389	1138.490	1002.832	-281.600	1222.294	926.577	-232.198	1228.512	930.860	-320.716	1211.092	942.936	-269.061	1244.831	804.687	-278.509	1361.707	461.847	-244.633	1130.513	384.112	-438.911	1276.589	476.572	-191.873	1149.335	438.383	-361.291	1300.766	392.006	-191.343	1106.074	363.209	-339.028	1376.358	140.802	-113.986	1023.094	133.592	-305.497	1344.771	196.729	-176.383	995.211	210.409	-329.622	1474.653	62.937	-201.432	957.093	37.560	-325.098
	49	0.49167	1170.101	590.951	-277.397	1177.465	603.781	-224.491	1176.580	603.750	-341.933	1305.864	334.012	-222.464	1052.257	333.215	-328.150	1388.100	55.876	-212.729	892.357	86.785	-336.042	1220.574	666.240	-283.557	1221.244	666.263	-194.692	1219.904	666.217	-372.421	1081.666	682.651	-233.675	1080.541	682.298	-319.101	1304.463	333.690	-176.487	1048.273	332.609	-375.981	1295.098	326.942	-261.095	1047.838	339.961	-288.575	1384.186	55.884	-179.458	886.379	91.674	-367.611	1394.306	58.628	-240.682	884.712	91.683	-302.163	1149.575	1002.634	-279.401	1232.853	926.118	-229.817	1239.380	930.765	-318.561	1221.777	942.599	-266.796	1255.264	804.374	-276.692	1374.048	464.813	-243.507	1140.521	383.395	-437.907	1288.562	478.702	-190.322	1159.562	437.253	-360.294	1312.993	394.172	-190.328	1119.270	362.658	-338.346	1387.039	140.731	-115.722	1027.905	132.682	-305.674	1355.836	198.286	-177.747	1002.183	210.500	-329.131	1479.239	57.745	-204.830	958.468	37.779	-325.423
	50	0.50000	1181.063	590.778	-275.800	1188.313	603.981	-222.920	1187.656	603.192	-340.360	1319.242	336.495	-222.732	1063.765	332.063	-327.027	1390.554	55.150	-213.493	896.642	90.262	-336.727	1231.417	666.141	-282.303	1231.914	666.738	-193.431	1230.920	665.543	-371.175	1092.000	682.589	-233.104	1091.668	681.731	-318.445	1317.888	335.864	-176.756	1059.519	331.652	-374.837	1309.010	331.177	-261.171	1060.190	338.002	-286.932	1387.957	55.589	-180.097	890.824	95.548	-368.262	1395.493	57.719	-241.397	889.137	95.097	-303.007	1160.483	1002.783	-277.234	1243.347	926.010	-227.479	1250.302	930.971	-316.367	1232.439	942.574	-264.514	1265.790	804.403	-274.778	1386.165	468.021	-243.018	1151.254	382.855	-436.933	1300.610	482.200	-188.988	1170.293	436.390	-359.224	1326.394	398.032	-189.942	1131.017	361.711	-337.359	1396.825	140.578	-117.210	1033.395	131.790	-305.983	1366.112	199.582	-178.636	1010.024	210.501	-328.609	1482.811	53.138	-207.737	960.032	37.970	-325.731
	51	0.50833	1191.995	591.005	-274.345	1199.168	604.556	-221.416	1198.710	602.970	-338.850	1331.874	338.791	-222.933	1076.184	330.768	-326.028	1392.350	54.610	-213.998	901.754	93.992	-337.372	1242.218	666.419	-281.148	1242.565	667.620	-192.274	1241.872	665.218	-370.022	1102.317	682.820	-232.729	1102.756	681.451	-317.987	1330.797	337.991	-176.953	1071.729	330.522	-373.820	1323.018	336.158	-262.075	1072.412	336.599	-285.389	1390.971	55.369	-180.535	896.052	99.702	-368.855	1396.786	57.068	-241.703	894.132	99.209	-303.770	1171.045	1003.054	-275.210	1253.834	926.271	-225.145	1261.303	931.457	-314.038	1243.083	942.845	-262.244	1276.794	804.821	-272.624	1397.958	471.130	-243.219	1162.843	382.467	-436.003	1313.099	486.375	-188.399	1181.703	435.751	-358.004	1340.364	402.678	-190.531	1142.844	360.718	-336.091	1405.552	140.226	-118.417	1039.691	130.919	-306.507	1375.241	200.296	-178.842	1018.787	210.431	-328.144	1485.505	49.318	-210.007	961.786	38.126	-325.985
